<?xml version="1.0" standalone="no"?>
<svg xmlns="http://www.w3.org/2000/svg" xmlns:xlink="http://www.w3.org/1999/xlink" width="525pt" height="413pt" viewBox="0.00 0.00 525.32 412.83">
<g id="graph0" class="graph" transform="translate(5.335542528736745,301.5505863604201) scale(0.7356675926071007)" data-name="depends">

<polygon fill="white" stroke="none" points="-4,4 -4,-408.83 521.32,-408.83 521.32,4 -4,4"/>
<!-- Design Space Coverage -->
<g id="node1" class="node" pointer-events="visible" data-name="Design Space Base" data-comment="Design Space Coverage">

<ellipse fill="none" stroke="black" cx="116.06" cy="-106.42" rx="87.38" ry="29.33"/>
<text text-anchor="middle" x="116.06" y="-110.62" font-family="Times,serif" font-size="14.00">Design Space Base</text>
<text text-anchor="middle" x="116.06" y="-93.82" font-family="Times,serif" font-size="14.00">(run.py)</text>
</g>
<!-- Parallelization Speedup -->
<g id="node3" class="node" pointer-events="visible" data-name="Parallelization Speedup">

<ellipse fill="none" stroke="rgb(0, 0, 0)" cx="116.06" cy="-298.42" rx="105.11" ry="29.33"/>
<text text-anchor="middle" x="116.06" y="-302.62" font-family="Times,serif" font-size="14.00">Parallelization Speedup</text>
<text text-anchor="middle" x="116.06" y="-285.82" font-family="Times,serif" font-size="14.00">(run.py)</text>
</g><g id="node2" class="node" pointer-events="visible" data-name="Design Space Expanded" data-comment="Parallelization Speedup">

<ellipse fill="none" stroke="black" cx="116.06" cy="-29.42" rx="107.56" ry="29.33"/>
<text text-anchor="middle" x="116.06" y="-33.62" font-family="Times,serif" font-size="14.00">Design Space Expanded</text>
<text text-anchor="middle" x="116.06" y="-16.82" font-family="Times,serif" font-size="14.00">(run.py)</text>
</g>
<!-- Intel Design Flow -->
<g id="node4" class="node" pointer-events="visible" data-name="Intel Design Flow">

<ellipse fill="none" stroke="rgb(0, 0, 0)" cx="116.06" cy="-221.42" rx="82.61" ry="29.33"/>
<text text-anchor="middle" x="116.06" y="-225.62" font-family="Times,serif" font-size="14.00">Intel Design Flow</text>
<text text-anchor="middle" x="116.06" y="-208.82" font-family="Times,serif" font-size="14.00">(run.py)</text>
</g><!-- Design Space Coverage&#45;&gt;Design Space Vis -->
<g id="edge1" class="edge" data-name="Design Space Base-&gt;Design Space Vis" data-comment="Design Space Coverage-&gt;Design Space Vis">

<path fill="none" stroke="black" d="M197.24,-95.03C231.1,-90.22 270.61,-84.61 305.13,-79.71"/>
<polygon fill="black" stroke="black" points="305.24,-83.23 314.65,-78.36 304.26,-76.3 305.24,-83.23"/>
</g>
<!-- Regression Benchmarking -->
<g id="node5" class="node" pointer-events="visible" data-name="Regression Benchmarking">

<ellipse fill="none" stroke="rgb(0, 0, 0)" cx="116.06" cy="-375.42" rx="116.12" ry="29.33"/>
<text text-anchor="middle" x="116.06" y="-379.62" font-family="Times,serif" font-size="14.00">Regression Benchmarking</text>
<text text-anchor="middle" x="116.06" y="-362.82" font-family="Times,serif" font-size="14.00">(run.py)</text>
</g>
<!-- Design Space Vis -->
<g id="node6" class="node" pointer-events="visible" data-name="Design Space Vis">

<ellipse fill="none" stroke="black" cx="392.72" cy="-67.42" rx="81.9" ry="29.33"/>
<text text-anchor="middle" x="392.72" y="-71.62" font-family="Times,serif" font-size="14.00">Design Space Vis</text>
<text text-anchor="middle" x="392.72" y="-54.82" font-family="Times,serif" font-size="14.00">(analyze.py)</text>
</g><g id="edge2" class="edge" data-name="Design Space Expanded-&gt;Design Space Vis" data-comment="Design Space Vis">

<path fill="none" stroke="black" d="M212.74,-42.65C242.66,-46.79 275.51,-51.34 304.8,-55.39"/>
<polygon fill="black" stroke="black" points="303.95,-58.81 314.33,-56.71 304.91,-51.87 303.95,-58.81"/>
</g>
<!-- Regression Testing Analysis -->
<g id="node7" class="node" pointer-events="visible" data-name="Regression Testing Analysis">

<ellipse fill="none" stroke="black" cx="392.72" cy="-375.42" rx="124.69" ry="29.33"/>
<text text-anchor="middle" x="392.72" y="-379.62" font-family="Times,serif" font-size="14.00">Regression Testing Analysis</text>
<text text-anchor="middle" x="392.72" y="-362.82" font-family="Times,serif" font-size="14.00">(analyze.py)</text>
</g><g id="edge4" class="edge" data-name="Parallelization Speedup-&gt;Parallel Speedup Vis" data-comment="Regression Testing Analysis">

<path fill="none" stroke="black" d="M221.29,-298.42C242.77,-298.42 265.4,-298.42 286.91,-298.42"/>
<polygon fill="black" stroke="black" points="286.86,-301.92 296.86,-298.42 286.86,-294.92 286.86,-301.92"/>
</g><g id="edge6" class="edge" data-name="Parallelization Speedup-&gt;HLSyn Vis" data-comment="Regression Testing Analysis">

<path fill="none" stroke="black" d="M191.39,-277.58C234.46,-265.5 288.1,-250.47 329.03,-238.99"/>
<polygon fill="black" stroke="black" points="329.81,-242.41 338.49,-236.34 327.92,-235.67 329.81,-242.41"/>
</g>
<!-- H -->
<!-- HLSyn Vis -->
<g id="node8" class="node" pointer-events="visible" data-name="HLSyn Vis">

<ellipse fill="none" stroke="black" cx="392.72" cy="-221.42" rx="60.51" ry="29.33"/>
<text text-anchor="middle" x="392.72" y="-225.62" font-family="Times,serif" font-size="14.00">HLSyn Vis</text>
<text text-anchor="middle" x="392.72" y="-208.82" font-family="Times,serif" font-size="14.00">(analyze.py)</text>
</g>
<!-- AP -->
<!-- Parallel Speedup Vis -->
<!-- Parallel Speedup Vis -->
<g id="node10" class="node" pointer-events="visible" data-name="Parallel Speedup Vis">

<ellipse fill="none" stroke="black" cx="392.72" cy="-298.42" rx="94.19" ry="29.33"/>
<text text-anchor="middle" x="392.72" y="-302.62" font-family="Times,serif" font-size="14.00">Parallel Speedup Vis</text>
<text text-anchor="middle" x="392.72" y="-285.82" font-family="Times,serif" font-size="14.00">(analyze.py)</text>
</g><!-- Regression Benchmarking&#45;&gt;Regression Testing Analysis -->
<!-- Regression Benchmarking&#45;&gt;Regression Testing Analysis -->
<!-- Regression Benchmarking&#45;&gt;Regression Testing Analysis -->
<g id="edge3" class="edge" data-name="Regression Benchmarking-&gt;Regression Testing Analysis">

<path fill="none" stroke="black" d="M232.35,-375.42C240.33,-375.42 248.41,-375.42 256.49,-375.42"/>
<polygon fill="black" stroke="black" points="256.37,-378.92 266.37,-375.42 256.37,-371.92 256.37,-378.92"/>
</g>
<g id="edge5" class="edge" data-name="Intel Design Flow-&gt;HLSyn Vis" data-comment="Regression Benchmarking-&gt;Regression Testing Analysis">

<path fill="none" stroke="black" d="M199.1,-221.42C237.77,-221.42 283.48,-221.42 320.66,-221.42"/>
<polygon fill="black" stroke="black" points="320.39,-224.92 330.39,-221.42 320.39,-217.92 320.39,-224.92"/>
</g>

<g id="edge7" class="edge" data-name="Intel Design Flow-&gt;Intel Flow Vis" data-comment="Regression Benchmarking-&gt;Regression Testing Analysis">

<path fill="none" stroke="black" d="M181.8,-203.27C224.55,-191.28 280.47,-175.61 323.84,-163.45"/>
<polygon fill="black" stroke="black" points="324.72,-166.83 333.4,-160.76 322.83,-160.09 324.72,-166.83"/>
</g>

<!-- I -->
<g id="node9" class="node" pointer-events="visible" data-name="Intel Flow Vis" data-comment="I">

<ellipse fill="none" stroke="black" cx="392.72" cy="-144.42" rx="68.52" ry="29.33"/>
<text text-anchor="middle" x="392.72" y="-148.62" font-family="Times,serif" font-size="14.00">Intel Flow Vis</text>
<text text-anchor="middle" x="392.72" y="-131.82" font-family="Times,serif" font-size="14.00">(analyze.py)</text>
</g>



<!-- Regression Benchmarking&#45;&gt;Regression Testing Analysis -->

</g>
</svg>